<svg xmlns="http://www.w3.org/2000/svg" version="1.1" xmlns:xlink="http://www.w3.org/1999/xlink" xmlns:svgjs="http://svgjs.dev/svgjs" width="2000" height="1252" viewBox="0 0 2000 1252"><g transform="matrix(1,0,0,1,-1.2121212121212466,-2.01935483870966)"><svg viewBox="0 0 396 248" data-background-color="#122023" preserveAspectRatio="xMidYMid meet" height="1252" width="2000" xmlns="http://www.w3.org/2000/svg" xmlns:xlink="http://www.w3.org/1999/xlink"><g id="tight-bounds" transform="matrix(1,0,0,1,0.2400000000000091,0.4000000000000057)"><svg viewBox="0 0 395.52 247.2" height="247.2" width="395.52"><g><svg></svg></g><g><svg viewBox="0 0 395.52 247.2" height="247.2" width="395.52"><g transform="matrix(1,0,0,1,75.54432,90.92979116883117)"><svg viewBox="0 0 244.43135999999998 65.34041766233766" height="65.34041766233766" width="244.43135999999998"><g><svg viewBox="0 0 244.43135999999998 65.34041766233766" height="65.34041766233766" width="244.43135999999998"><g><svg viewBox="0 0 244.43135999999998 65.34041766233766" height="65.34041766233766" width="244.43135999999998"><g><svg viewBox="0 0 244.43135999999998 65.34041766233766" height="65.34041766233766" width="244.43135999999998"><g id="textblocktransform"><svg viewBox="0 0 244.43135999999998 65.34041766233766" height="65.34041766233766" width="244.43135999999998" id="textblock"><g><svg viewBox="0 0 244.43135999999998 65.34041766233766" height="65.34041766233766" width="244.43135999999998"><g transform="matrix(1,0,0,1,0,0)"><svg width="244.43135999999998" viewBox="2.55 -36.55 138.58999999999997 37.05" height="65.34041766233766" data-palette-color="#b79931"><path d="M16.25-0.55L16.25-0.55Q18.75-0.55 20.68-1.9 22.6-3.25 22.6-5.98 22.6-8.7 20.53-10.15 18.45-11.6 14.63-12.68 10.8-13.75 9.08-14.55 7.35-15.35 5.8-16.65L5.8-16.65Q2.7-19.25 2.7-24.7L2.7-24.7Q2.7-29.15 5.88-32.35 9.05-35.55 14.55-35.55L14.55-35.55Q17.2-35.55 20.08-34.77 22.95-34 23.65-34 24.35-34 24.9-35L24.9-35 25.45-35 25.8-24.9 25-24.9Q22.6-29.25 19.98-31.88 17.35-34.5 14.28-34.5 11.2-34.5 9.5-33.08 7.8-31.65 7.8-29.28 7.8-26.9 9.83-25.63 11.85-24.35 14.8-23.55 17.75-22.75 18.68-22.45 19.6-22.15 20.98-21.63 22.35-21.1 23.23-20.53 24.1-19.95 25.08-19.07 26.05-18.2 26.6-17.15L26.6-17.15Q27.95-14.75 27.95-11.45L27.95-11.45Q27.95-6.05 24.58-2.78 21.2 0.5 15.7 0.5L15.7 0.5Q12.85 0.5 9.18-0.25 5.5-1 5.1-1L5.1-1Q4.4-1 3.75 0.5L3.75 0.5 3.05 0.5 2.55-11.4 3.4-11.4Q5.6-7.05 9.03-3.8 12.45-0.55 16.25-0.55ZM42.5-11.75L42.5-11.75 43.95-11.75 43.95-15.6Q43.95-20.35 43.42-21.98 42.9-23.6 41.4-23.6L41.4-23.6Q40.5-23.6 39.77-23.13 39.05-22.65 39.05-21.83 39.05-21 39.35-20.15L39.35-20.15 40.6-20.15Q41-19.1 41-17.63 41-16.15 39.75-15.08 38.5-14 36.6-14L36.6-14Q32.3-14 32.3-18.15L32.3-18.15Q32.3-24.3 42.75-24.3L42.75-24.3Q48.7-24.3 50.97-22.28 53.25-20.25 53.25-14.85L53.25-14.85 53.25-4.7Q53.25-2.1 54.7-2.1L54.7-2.1Q56.4-2.1 56.7-7.25L56.7-7.25 57.45-7.2Q57.25-2.8 55.8-1.15 54.35 0.5 51.05 0.5L51.05 0.5Q45.05 0.5 44.15-3.2L44.15-3.2Q43.5-1.3 42.2-0.4 40.9 0.5 38.4 0.5L38.4 0.5Q31 0.5 31-5.55L31-5.55Q31-9.1 33.82-10.43 36.65-11.75 42.5-11.75ZM40.5-5.6Q40.5-3 40.77-2.25 41.05-1.5 41.82-1.5 42.6-1.5 43.27-2.78 43.95-4.05 43.95-6.3L43.95-6.3 43.95-10.95 43.6-10.95Q40.5-10.95 40.5-6.4L40.5-6.4 40.5-5.6ZM56.5-22.9L54.45-22.9 54.45-23.8 69.4-23.8 69.4-22.9 66.25-22.9 72.25-6.3 77.65-22.9 74.3-22.9 74.3-23.8 81.05-23.8 81.05-22.9 78.85-22.9 71.45 0 65.75 0 56.5-22.9ZM93.44 0.5Q86.99 0.5 83.77-2.83 80.54-6.15 80.54-12.08 80.54-18 84.17-21.15 87.79-24.3 93.39-24.3L93.39-24.3Q104.74-24.3 104.29-12.9L104.29-12.9 90.19-12.9 90.19-10.95Q90.19-6.05 91.44-3.55 92.69-1.05 95.79-1.05L95.79-1.05Q101.59-1.05 103.39-7.25L103.39-7.25 104.29-7.1Q103.34-3.5 100.87-1.5 98.39 0.5 93.44 0.5L93.44 0.5ZM90.24-16.35L90.24-13.9 95.39-13.9 95.39-16.35Q95.39-20.4 94.92-21.88 94.44-23.35 93.02-23.35 91.59-23.35 90.92-21.78 90.24-20.2 90.24-16.35L90.24-16.35ZM113.44-27.25Q110.79-27.25 109.67-28.6 108.54-29.95 108.54-31.95 108.54-33.95 109.77-35.25 110.99-36.55 113.49-36.55 115.99-36.55 117.29-35.38 118.59-34.2 118.59-32.02 118.59-29.85 117.34-28.55 116.09-27.25 113.44-27.25ZM105.89-22.9L105.89-23.8 118.14-23.8 118.14-0.9 120.94-0.9 120.94 0 106.09 0 106.09-0.9 108.84-0.9 108.84-22.9 105.89-22.9ZM124.44-7.15L124.44-7.15 124.44-22.9 121.69-22.9 121.69-23.8 124.44-23.8 124.44-30.25 133.74-32.55 133.74-23.8 140.24-23.8 140.24-22.9 133.74-22.9 133.74-6.05Q133.74-3.7 134.21-2.6 134.69-1.5 136.19-1.5 137.69-1.5 138.81-3 139.94-4.5 140.29-7.1L140.29-7.1 141.14-7Q140.74-3.55 138.94-1.53 137.14 0.5 132.99 0.5 128.84 0.5 126.64-1.15 124.44-2.8 124.44-7.15Z" opacity="1" transform="matrix(1,0,0,1,0,0)" fill="#b79931" class="wordmark-text-0" data-fill-palette-color="primary" id="text-0"></path></svg></g></svg></g></svg></g></svg></g></svg></g></svg></g></svg></g><g><path d="M245.816 0c68.262 0 123.6 55.338 123.6 123.6 0 68.262-55.338 123.6-123.6 123.6-54.121 0-100.118-34.785-116.853-83.217l3.123 0c16.61 46.775 61.258 80.271 113.73 80.271 66.635 0 120.654-54.019 120.653-120.654 0-66.635-54.019-120.654-120.653-120.654-52.472 0-97.12 33.495-113.73 80.271l-3.123 0c16.735-48.432 62.731-83.217 116.853-83.217z" fill="#b79931" stroke="transparent" data-fill-palette-color="tertiary"></path></g></svg></g><defs></defs></svg><rect width="395.52" height="247.2" fill="none" stroke="none" visibility="hidden"></rect></g></svg></g></svg>